<?xml version="1.0" encoding="UTF-8" standalone="no"?>
<!-- Created with Inkscape (http://www.inkscape.org/) -->

<svg
   xmlns:dc="http://purl.org/dc/elements/1.1/"
   xmlns:cc="http://creativecommons.org/ns#"
   xmlns:rdf="http://www.w3.org/1999/02/22-rdf-syntax-ns#"
   xmlns:svg="http://www.w3.org/2000/svg"
   xmlns="http://www.w3.org/2000/svg"
   xmlns:xlink="http://www.w3.org/1999/xlink"
   xmlns:sodipodi="http://sodipodi.sourceforge.net/DTD/sodipodi-0.dtd"
   xmlns:inkscape="http://www.inkscape.org/namespaces/inkscape"
   width="513.7851"
   height="494.38583"
   id="svg3183"
   sodipodi:version="0.32"
   inkscape:version="0.92.5 (2060ec1f9f, 2020-04-08)"
   version="1.0"
   sodipodi:docname="bioinf-fr-logo-blau.svg"
   inkscape:output_extension="org.inkscape.output.svgz.inkscape">
  <defs
     id="defs3185">
    <linearGradient
       id="linearGradient3236">
      <stop
         style="stop-color:#ffffff;stop-opacity:1;"
         offset="0"
         id="stop3238" />
      <stop
         style="stop-color:#99a1bf;stop-opacity:1;"
         offset="1"
         id="stop3240" />
    </linearGradient>
    <linearGradient
       inkscape:collect="always"
       xlink:href="#linearGradient3236"
       id="linearGradient3318"
       gradientUnits="userSpaceOnUse"
       x1="6848.6553"
       y1="1722.0107"
       x2="5252.5337"
       y2="3352.697"
       gradientTransform="matrix(9.6970393e-2,0,0,9.6970393e-2,-241.58286,237.19899)" />
    <inkscape:perspective
       sodipodi:type="inkscape:persp3d"
       inkscape:vp_x="0 : 526.18109 : 1"
       inkscape:vp_y="0 : 1000 : 0"
       inkscape:vp_z="744.09448 : 526.18109 : 1"
       inkscape:persp3d-origin="372.04724 : 350.78739 : 1"
       id="perspective3191" />
    <linearGradient
       inkscape:collect="always"
       xlink:href="#linearGradient3236"
       id="linearGradient3210"
       gradientUnits="userSpaceOnUse"
       gradientTransform="matrix(9.6970393e-2,0,0,9.6970393e-2,-241.58286,237.19899)"
       x1="6848.6553"
       y1="1722.0107"
       x2="5252.5337"
       y2="3352.697" />
    <linearGradient
       inkscape:collect="always"
       xlink:href="#linearGradient3236"
       id="linearGradient3215"
       gradientUnits="userSpaceOnUse"
       gradientTransform="matrix(9.6970393e-2,0,0,9.6970393e-2,-241.58286,237.19899)"
       x1="6702.8154"
       y1="1867.8505"
       x2="5252.5337"
       y2="3352.697" />
    <linearGradient
       inkscape:collect="always"
       xlink:href="#linearGradient3236"
       id="linearGradient3241"
       gradientUnits="userSpaceOnUse"
       gradientTransform="matrix(9.6970393e-2,0,0,9.6970393e-2,-231.58286,231.19899)"
       x1="6702.8154"
       y1="1867.8505"
       x2="5252.5337"
       y2="3352.697" />
    <linearGradient
       inkscape:collect="always"
       xlink:href="#linearGradient3236"
       id="linearGradient3289"
       gradientUnits="userSpaceOnUse"
       gradientTransform="matrix(9.6970393e-2,0,0,9.6970393e-2,-241.58286,237.19899)"
       x1="6702.8154"
       y1="1867.8505"
       x2="5252.5337"
       y2="3352.697" />
  </defs>
  <sodipodi:namedview
     id="base"
     pagecolor="#ffffff"
     bordercolor="#666666"
     borderopacity="1.0"
     inkscape:pageopacity="0.0"
     inkscape:pageshadow="2"
     inkscape:zoom="0.49497475"
     inkscape:cx="-20.725981"
     inkscape:cy="515.95939"
     inkscape:document-units="px"
     inkscape:current-layer="layer1"
     showgrid="false"
     inkscape:window-width="1042"
     inkscape:window-height="974"
     inkscape:window-x="0"
     inkscape:window-y="25"
     inkscape:window-maximized="0">
    <inkscape:grid
       type="xygrid"
       id="grid3217"
       visible="true"
       enabled="true" />
  </sodipodi:namedview>
  <metadata
     id="metadata3188">
    <rdf:RDF>
      <cc:Work
         rdf:about="">
        <dc:format>image/svg+xml</dc:format>
        <dc:type
           rdf:resource="http://purl.org/dc/dcmitype/StillImage" />
        <dc:title></dc:title>
      </cc:Work>
    </rdf:RDF>
  </metadata>
  <g
     inkscape:label="hinter"
     inkscape:groupmode="layer"
     id="layer1"
     style="display:inline"
     transform="translate(-82.25032,-239.45496)">
    <rect
       style="opacity:1;fill:#003592;fill-opacity:1;fill-rule:nonzero;stroke:none;stroke-width:0.17100000000000001;stroke-linecap:butt;stroke-linejoin:miter;marker:none;marker-start:none;marker-mid:none;marker-end:none;stroke-miterlimit:4;stroke-dasharray:none;stroke-dashoffset:0;stroke-opacity:1;visibility:visible;display:inline;overflow:visible;enable-background:accumulate"
       id="rect3244"
       width="513.7851"
       height="494.38583"
       x="82.25032"
       y="239.45496"
       ry="114.6682"
       inkscape:export-filename="/home/mmohl/bioinf-www/web/pics/bioinf-fr-logo-blau.png"
       inkscape:export-xdpi="23.64802"
       inkscape:export-ydpi="23.64802" />
  </g>
  <g
     inkscape:groupmode="layer"
     id="layer2"
     inkscape:label="3D"
     style="display:inline"
     transform="translate(-82.25032,-239.45496)">
    <path
       id="path3263"
       style="fill:none;fill-opacity:1;fill-rule:nonzero;stroke:#000000;stroke-width:3.8354342;stroke-linecap:butt;stroke-linejoin:miter;marker:none;marker-start:none;marker-mid:none;marker-end:none;stroke-miterlimit:10;stroke-dashoffset:0;stroke-opacity:1;visibility:visible;display:inline;overflow:visible;enable-background:accumulate"
       d="M 268.07114,429.71063 L 349.94639,429.71063 C 352.67741,429.71063 354.87604,431.90926 354.87604,434.6403 L 354.87604,444.49961 C 354.87604,447.23065 352.67741,449.42928 349.94639,449.42928 L 268.07114,449.42928 C 265.34011,449.42928 263.14148,447.23065 263.14148,444.49961 L 263.14148,434.6403 C 263.14148,431.90926 265.34011,429.71063 268.07114,429.71063 z M 155.73424,297.6458 L 154.51241,305.89313 L 157.41425,305.89313 C 167.34158,305.89313 169.47979,306.65678 169.47979,310.0168 C 169.47979,311.39135 168.86888,314.59865 167.49432,319.63869 L 149.6251,385.9228 C 146.87599,396.30832 146.87599,396.30833 145.65417,397.53015 C 143.97415,399.05744 140.30866,399.66835 133.89408,399.66835 L 133.28317,399.66835 L 132.21407,407.91568 L 196.05453,407.91568 C 207.96733,407.91568 219.72743,405.93021 228.12748,402.41746 C 238.05482,398.44652 244.16396,388.97735 244.16396,378.13365 C 244.16396,363.77719 234.54206,355.22439 214.53466,351.71164 C 237.13844,349.11526 249.81491,339.03517 249.81491,323.76235 C 249.81491,314.90411 245.53851,307.42041 238.05483,302.99129 C 232.25116,299.47854 222.01834,297.6458 209.49462,297.6458 L 155.73424,297.6458 M 186.89082,347.28252 L 195.59634,315.05683 C 197.58181,307.57315 199.26183,305.89313 204.76004,305.89313 L 207.05097,305.89313 C 216.52012,305.89313 221.86562,311.39136 221.86562,321.3187 C 221.86562,330.48239 217.89467,338.88246 211.32736,343.31158 C 206.74551,346.36615 202.46911,347.28252 191.6254,347.28252 L 186.89082,347.28252 M 184.75263,355.52985 L 192.38905,355.52985 C 202.62184,355.52985 205.52369,356.14076 209.3419,358.73715 C 213.1601,361.48626 214.99284,365.76266 214.99284,372.32997 C 214.99284,381.18821 211.78554,389.58828 206.44006,394.0174 C 202.16366,397.68288 195.59633,399.66835 187.65447,399.66835 L 182.61443,399.66835 C 177.11622,399.66835 174.51983,398.29379 174.51983,395.0865 C 174.51983,394.0174 174.82528,392.49012 175.74165,389.28282 L 184.75263,355.52985 M 490.88176,668.96 L 492.05471,661.0425 L 488.82909,661.0425 C 479.29885,661.0425 477.24617,660.3094 477.24617,657.0838 C 477.24617,655.9109 477.24617,655.9109 479.29884,647.8468 L 496.30667,584.2141 C 498.94582,574.09735 498.94582,574.09734 500.26539,573.071 C 501.73158,571.60481 505.25045,571.01833 511.40845,571.01833 L 512.43479,571.01833 L 513.46112,563.10089 L 458.77215,563.10089 L 457.59919,571.01833 L 460.82482,571.01833 C 470.35506,571.01833 472.40773,571.75143 472.40773,574.97705 C 472.40773,576.29662 471.82126,579.22902 470.35507,584.2141 L 453.34723,647.8468 C 450.70809,657.8169 450.70809,657.8169 449.38851,658.9899 C 447.92232,660.4561 444.40345,661.0425 438.24545,661.0425 L 437.21912,661.0425 L 436.19278,668.96 L 490.88176,668.96 M 307.44785,491.58383 C 300.09246,491.58383 293.50679,495.4326 287.69091,503.30115 C 282.13161,510.8276 278.62495,521.77519 278.62495,531.69641 C 278.62495,544.69664 285.38167,553.16391 295.73053,553.16391 C 310.86895,553.16391 324.12579,534.60434 324.12579,513.22239 C 324.12579,500.0511 317.62566,491.58383 307.44785,491.58383 M 307.02021,495.7747 C 309.84263,495.7747 311.55319,498.42606 311.55319,502.95904 C 311.55319,509.54468 308.90182,524.25549 305.90835,534.00566 C 302.57276,544.95322 299.9214,548.80199 295.90159,548.80199 C 292.90811,548.80199 291.0265,546.49273 291.0265,542.72951 C 291.0265,536.82809 293.67786,521.94622 296.50028,511.76841 C 299.49376,501.16296 303.0004,495.7747 307.02021,495.7747 M 402.39029,414.66011 L 398.88364,414.66011 C 395.03489,417.56806 384.00178,420.47601 375.36348,420.81812 L 374.25161,425.09451 L 381.94912,425.09451 C 384.85707,425.09451 385.79788,425.60768 385.79788,427.31824 C 385.79788,428.08799 385.71235,428.60116 385.11365,430.5683 L 376.56087,462.81231 C 374.93584,468.71373 374.93584,468.71374 374.25161,469.31243 C 373.39633,470.16771 371.34366,470.50982 367.75149,470.50982 L 363.38957,470.50982 L 362.70535,475.12833 L 398.79812,475.12833 L 399.39681,470.50982 L 395.12042,470.50982 C 389.56111,470.50982 388.36371,470.08218 388.36371,468.20057 C 388.36371,467.43082 388.79135,465.54921 389.47558,462.81231 L 402.39029,414.66011 M 538.3988,348.27889 C 557.62046,348.12364 560.42154,375.5749 538.4901,376.3141 C 536.56409,376.44706 497.42703,381.85384 487.45017,383.08938 C 481.77696,383.68998 476.13872,384.5607 470.48135,385.28639 C 463.53778,386.24121 456.58832,387.15386 449.65352,388.1728 C 439.40347,389.61425 429.17333,391.19703 418.96721,392.92294 C 406.58191,395.05122 394.19443,397.19753 381.90547,399.83573 C 371.48785,402.13206 361.07511,404.50292 350.84814,407.55471 C 344.59026,409.4782 338.35955,411.50936 332.24316,413.84908 C 324.35212,417.06059 316.55189,420.64045 309.44641,425.37947 C 299.59674,431.75691 290.9416,439.99563 284.17491,449.58709 C 279.85647,455.57515 276.37776,462.1365 273.59074,468.96519 C 271.00475,475.37411 268.81574,481.94273 266.95387,488.59725 C 263.98971,499.97342 261.59223,511.49822 259.80277,523.11804 C 258.33564,532.35721 257.07192,541.62748 255.95575,550.91523 C 255.3097,556.70149 254.78658,562.50099 254.17988,568.29144 C 253.04829,579.2069 252.15474,590.145 251.37133,601.0904 C 250.9215,607.945 250.2964,614.7876 249.96665,621.6501 C 249.47236,632.3397 246.0398,657.1398 245.75291,667.8388 C 243.64734,686.4188 217.38284,681.4438 217.71771,668.96 C 218.05259,656.4762 219.07413,644.0256 219.65097,631.553 C 220.0357,623.5459 220.76502,615.562 221.2899,607.5639 C 222.20404,594.7929 223.24661,582.0303 224.56694,569.29432 C 225.27487,562.53793 225.88526,555.77109 226.63901,549.01977 C 227.94129,538.18274 229.41582,527.36633 231.12766,516.5861 C 233.2156,503.02811 236.01296,489.581 239.4716,476.30718 C 241.644,468.54273 244.19815,460.87847 247.21547,453.40062 C 250.4673,445.43285 254.52636,437.77708 259.56499,430.79027 C 267.46047,419.59892 277.55912,409.98599 289.05179,402.54486 C 297.34245,397.01535 306.44374,392.83851 315.65104,389.09131 C 322.78749,386.36131 330.05752,383.99136 337.35929,381.74705 C 349.29196,378.1861 361.4416,375.41989 373.59682,372.74044 C 387.9356,369.66221 402.38925,367.1579 416.84044,364.67474 C 428.74895,362.66085 440.68536,360.81416 452.64518,359.13219 C 460.73655,357.94341 468.84517,356.87838 476.94703,355.76437 C 483.54799,354.91764 490.12669,353.9016 496.74613,353.20083 C 508.38712,351.75931 536.15147,348.43414 538.3988,348.27889 z M 347.33714,506.41935 L 418.98456,506.41935 C 421.7156,506.41935 423.91423,508.61798 423.91423,511.34901 L 423.91423,521.20834 C 423.91423,523.93936 421.7156,526.13799 418.98456,526.13799 L 347.33714,526.13799 C 344.60612,526.13799 342.40749,523.93936 342.40749,521.20834 L 342.40749,511.34901 C 342.40749,508.61798 344.60612,506.41935 347.33714,506.41935 z M 156.50298,618.7251 C 137.28132,618.8804 134.48024,591.4291 156.41168,590.6899 C 158.33769,590.5569 197.47476,585.1502 207.45161,583.9146 C 213.12483,583.314 218.76306,582.4433 224.42043,581.7176 C 231.36401,580.7628 238.31346,579.85015 245.24827,578.83121 C 255.49831,577.38976 265.72845,575.80698 275.93458,574.08106 C 288.31987,571.95279 300.70735,569.80647 312.99631,567.16828 C 323.41393,564.87195 333.82668,562.50109 344.05364,559.4493 C 350.31152,557.5258 356.54223,555.49465 362.65862,553.15493 C 370.54967,549.94342 378.3499,546.36356 385.45537,541.62454 C 395.30504,535.2471 403.96018,527.00838 410.72688,517.41692 C 415.04532,511.42886 418.52402,504.86751 421.31104,498.03882 C 423.89704,491.6299 426.08604,485.06127 427.94792,478.40676 C 430.91208,467.03059 433.30955,455.50578 435.09902,443.88597 C 436.56614,434.6468 437.82987,425.37653 438.94604,416.08877 C 439.59208,410.30252 440.1152,404.50302 440.7219,398.71257 C 441.85349,387.79711 442.74704,376.85902 443.53046,365.91361 C 443.98028,359.059 444.60538,352.21645 444.93513,345.35388 C 445.42942,334.6643 448.86199,309.86421 449.14887,299.16515 C 451.25444,280.58517 477.51895,285.56021 477.18407,298.044 C 476.84919,310.52779 475.82765,322.97844 475.25081,335.45103 C 474.86608,343.45813 474.13677,351.44202 473.61188,359.44008 C 472.69774,372.21108 471.65518,384.9737 470.33485,397.70968 C 469.62691,404.46608 469.01652,411.23291 468.26277,417.98423 C 466.96049,428.82127 465.48596,439.63767 463.77412,450.41791 C 461.68618,463.9759 458.88882,477.42301 455.43018,490.69682 C 453.25778,498.46128 450.70363,506.12554 447.68632,513.60338 C 444.43448,521.57116 440.37542,529.22692 435.33679,536.21374 C 427.44131,547.40509 417.34266,557.01802 405.84999,564.45915 C 397.55933,569.98866 388.45804,574.1655 379.25074,577.91269 C 372.11429,580.6427 364.84427,583.0126 357.54249,585.257 C 345.60982,588.8179 333.46019,591.5841 321.30496,594.2636 C 306.96618,597.3418 292.51253,599.8461 278.06134,602.3293 C 266.15283,604.3432 254.21642,606.1899 242.2566,607.8718 C 234.16523,609.0606 226.05661,610.1256 217.95476,611.2396 C 211.35379,612.0864 204.77509,613.1024 198.15565,613.8032 C 186.51467,615.2447 158.75032,618.5699 156.50298,618.7251 z" />
  </g>
  <g
     inkscape:groupmode="layer"
     id="layer3"
     inkscape:label="logo"
     style="display:inline"
     transform="translate(-82.25032,-239.45496)">
    <path
       id="path3239"
       style="fill:url(#linearGradient3289);fill-opacity:1;fill-rule:nonzero;stroke:none;stroke-width:13.18421078;stroke-linecap:butt;stroke-linejoin:miter;marker:none;marker-start:none;marker-mid:none;marker-end:none;stroke-miterlimit:10;stroke-dashoffset:0;stroke-opacity:1;visibility:visible;display:inline;overflow:visible;enable-background:accumulate"
       d="M 154.5218,296.43335 L 153.29997,304.68068 L 156.20181,304.68068 C 166.12914,304.68068 168.26735,305.44433 168.26735,308.80435 C 168.26735,310.1789 167.65644,313.3862 166.28188,318.42623 L 148.41266,384.71035 C 145.66355,395.09587 145.66355,395.09588 144.44172,396.3177 C 142.76171,397.84499 139.09622,398.4559 132.68164,398.4559 L 132.07073,398.4559 L 131.00163,406.70323 L 194.84209,406.70323 C 206.75489,406.70323 218.51499,404.71776 226.91504,401.20501 C 236.84238,397.23407 242.95152,387.7649 242.95152,376.9212 C 242.95152,362.56474 233.32962,354.01194 213.32222,350.49919 C 235.926,347.90281 248.60247,337.82272 248.60247,322.5499 C 248.60247,313.69166 244.32607,306.20796 236.84239,301.77884 C 231.03872,298.26609 220.8059,296.43335 208.28218,296.43335 L 154.5218,296.43335 M 185.67838,346.07007 L 194.3839,313.84438 C 196.36937,306.3607 198.04939,304.68068 203.5476,304.68068 L 205.83853,304.68068 C 215.30768,304.68068 220.65318,310.17891 220.65318,320.10625 C 220.65318,329.26994 216.68223,337.67001 210.11492,342.09913 C 205.53307,345.1537 201.25667,346.07007 190.41296,346.07007 L 185.67838,346.07007 M 183.54019,354.3174 L 191.17661,354.3174 C 201.4094,354.3174 204.31125,354.92831 208.12945,357.5247 C 211.94766,360.27381 213.7804,364.55021 213.7804,371.11752 C 213.7804,379.97576 210.5731,388.37583 205.22762,392.80495 C 200.95122,396.47043 194.38389,398.4559 186.44203,398.4559 L 181.40199,398.4559 C 175.90378,398.4559 173.30739,397.08134 173.30739,393.87405 C 173.30739,392.80495 173.61284,391.27767 174.52921,388.07037 L 183.54019,354.3174 M 266.8587,428.49818 L 348.73395,428.49818 C 351.46497,428.49818 353.6636,430.69681 353.6636,433.42785 L 353.6636,443.28716 C 353.6636,446.0182 351.46497,448.21683 348.73395,448.21683 L 266.8587,448.21683 C 264.12767,448.21683 261.92904,446.0182 261.92904,443.28716 L 261.92904,433.42785 C 261.92904,430.69681 264.12767,428.49818 266.8587,428.49818 z M 489.66932,667.7475 L 490.84227,659.8301 L 487.61665,659.8301 C 478.08641,659.8301 476.03373,659.097 476.03373,655.8714 C 476.03373,654.6984 476.03373,654.6984 478.0864,646.6344 L 495.09423,583.0016 C 497.73338,572.8849 497.73338,572.88489 499.05295,571.85855 C 500.51914,570.39236 504.03801,569.80588 510.19601,569.80588 L 511.22235,569.80588 L 512.24868,561.88844 L 457.55971,561.88844 L 456.38675,569.80588 L 459.61238,569.80588 C 469.14262,569.80588 471.19529,570.53898 471.19529,573.7646 C 471.19529,575.08417 470.60882,578.01657 469.14263,583.0016 L 452.13479,646.6344 C 449.49565,656.6045 449.49565,656.6045 448.17607,657.7774 C 446.70988,659.2436 443.19101,659.8301 437.03301,659.8301 L 436.00668,659.8301 L 434.98034,667.7475 L 489.66932,667.7475 M 306.23541,491.21367 C 298.88002,491.21367 292.29435,495.06243 286.47847,502.93099 C 280.91917,510.45743 277.41251,521.40502 277.41251,531.32625 C 277.41251,544.32647 284.16922,552.79374 294.51809,552.79374 C 309.65651,552.79374 322.91335,534.23417 322.91335,512.85222 C 322.91335,499.68094 316.41322,491.21367 306.23541,491.21367 M 305.80777,495.40453 C 308.63019,495.40453 310.34075,498.0559 310.34075,502.58888 C 310.34075,509.17451 307.68938,523.88533 304.69591,533.6355 C 301.36032,544.58306 298.70896,548.43182 294.68915,548.43182 C 291.69567,548.43182 289.81406,546.12257 289.81406,542.35934 C 289.81406,536.45793 292.46542,521.57606 295.28784,511.39825 C 298.28132,500.7928 301.78796,495.40453 305.80777,495.40453 M 401.17785,413.44766 L 397.6712,413.44766 C 393.82245,416.35561 382.78934,419.26356 374.15104,419.60567 L 373.03917,423.88207 L 380.73668,423.88207 C 383.64463,423.88207 384.58544,424.39523 384.58544,426.10579 C 384.58544,426.87554 384.49991,427.38871 383.90121,429.35585 L 375.34843,461.59986 C 373.7234,467.50128 373.7234,467.50129 373.03917,468.09998 C 372.18389,468.95526 370.13122,469.29737 366.53905,469.29737 L 362.17713,469.29737 L 361.49291,473.91588 L 397.58568,473.91588 L 398.18437,469.29737 L 393.90798,469.29737 C 388.34867,469.29737 387.15127,468.86973 387.15127,466.98812 C 387.15127,466.21837 387.57891,464.33676 388.26314,461.59986 L 401.17785,413.44766 M 537.18636,347.06644 C 556.40802,346.91119 559.2091,374.36245 537.27766,375.10165 C 535.35165,375.23461 496.21459,380.64139 486.23773,381.87693 C 480.56452,382.47753 474.92628,383.34825 469.26891,384.07394 C 462.32534,385.02876 455.37588,385.94141 448.44108,386.96035 C 438.19103,388.4018 427.96089,389.98458 417.75477,391.71049 C 405.36947,393.83877 392.98199,395.98508 380.69303,398.62328 C 370.27541,400.91961 359.86267,403.29047 349.6357,406.34226 C 343.37782,408.26575 337.14711,410.29691 331.03072,412.63663 C 323.13968,415.84814 315.33945,419.428 308.23397,424.16702 C 298.3843,430.54446 289.72916,438.78318 282.96247,448.37464 C 278.64403,454.3627 275.16532,460.92405 272.3783,467.75274 C 269.79231,474.16166 267.6033,480.73028 265.74143,487.3848 C 262.77727,498.76097 260.37979,510.28577 258.59033,521.90559 C 257.1232,531.14476 255.85947,540.41503 254.74331,549.70278 C 254.09726,555.48904 253.57414,561.28854 252.96744,567.07899 C 251.83585,577.99445 250.9423,588.9325 250.15889,599.878 C 249.70906,606.7326 249.08396,613.5751 248.75421,620.4377 C 248.25992,631.1273 244.82736,655.9273 244.54047,666.6264 C 242.4349,685.2064 216.17039,680.2313 216.50527,667.7475 C 216.84015,655.2637 217.86169,642.8131 218.43853,630.3405 C 218.82326,622.3334 219.55258,614.3495 220.07746,606.3515 C 220.9916,593.5805 222.03417,580.8179 223.35449,568.08187 C 224.06243,561.32548 224.67282,554.55864 225.42657,547.80732 C 226.72885,536.97029 228.20338,526.15388 229.91522,515.37365 C 232.00316,501.81566 234.80052,488.36855 238.25916,475.09473 C 240.43156,467.33028 242.98571,459.66602 246.00303,452.18817 C 249.25486,444.2204 253.31392,436.56463 258.35255,429.57782 C 266.24803,418.38647 276.34668,408.77354 287.83935,401.33241 C 296.13001,395.8029 305.2313,391.62606 314.4386,387.87886 C 321.57505,385.14886 328.84508,382.77891 336.14685,380.5346 C 348.07952,376.97365 360.22916,374.20744 372.38438,371.52799 C 386.72316,368.44976 401.17681,365.94545 415.628,363.46229 C 427.53651,361.4484 439.47292,359.60171 451.43274,357.91974 C 459.52411,356.73096 467.63273,355.66593 475.73459,354.55192 C 482.33555,353.70519 488.91425,352.68915 495.53369,351.98838 C 507.17468,350.54686 534.93902,347.22169 537.18636,347.06644 z M 348.68166,505.2069 L 417.77212,505.2069 C 420.50316,505.2069 422.70179,507.40553 422.70179,510.13656 L 422.70179,519.99589 C 422.70179,522.72691 420.50316,524.92554 417.77212,524.92554 L 348.68166,524.92554 C 345.95063,524.92554 343.752,522.72691 343.752,519.99589 L 343.752,510.13656 C 343.752,507.40553 345.95063,505.2069 348.68166,505.2069 z M 155.29054,617.5127 C 136.06888,617.6679 133.2678,590.2167 155.19924,589.4775 C 157.12525,589.3445 196.26232,583.9377 206.23917,582.7022 C 211.91239,582.1016 217.55062,581.2309 223.20799,580.5052 C 230.15157,579.55035 237.10102,578.6377 244.03583,577.61876 C 254.28587,576.17731 264.51601,574.59453 274.72214,572.86861 C 287.10743,570.74034 299.49491,568.59402 311.78387,565.95583 C 322.20149,563.6595 332.61424,561.28864 342.8412,558.23685 C 349.09908,556.31335 355.32979,554.2822 361.44618,551.94248 C 369.33723,548.73097 377.13746,545.15111 384.24293,540.41209 C 394.0926,534.03465 402.74774,525.79593 409.51443,516.20447 C 413.83288,510.21641 417.31158,503.65506 420.0986,496.82637 C 422.68459,490.41745 424.8736,483.84882 426.73547,477.19431 C 429.69964,465.81814 432.09711,454.29333 433.88658,442.67352 C 435.3537,433.43435 436.61743,424.16408 437.73359,414.87632 C 438.37964,409.09007 438.90276,403.29057 439.50946,397.50012 C 440.64105,386.58466 441.5346,375.64657 442.31802,364.70116 C 442.76784,357.84655 443.39294,351.004 443.72269,344.14143 C 444.21698,333.45184 447.64954,308.65175 447.93643,297.9527 C 450.042,279.37271 476.30651,284.34775 475.97163,296.83155 C 475.63675,309.31534 474.61521,321.76599 474.03837,334.23858 C 473.65364,342.24568 472.92433,350.22957 472.39944,358.22763 C 471.4853,370.99863 470.44274,383.76125 469.12241,396.49723 C 468.41447,403.25363 467.80408,410.02046 467.05033,416.77178 C 465.74805,427.60882 464.27352,438.42522 462.56168,449.20546 C 460.47374,462.76345 457.67638,476.21056 454.21774,489.48437 C 452.04534,497.24883 449.49119,504.91309 446.47388,512.39093 C 443.22204,520.35871 439.16298,528.01447 434.12435,535.00129 C 426.22887,546.19264 416.13022,555.80557 404.63755,563.2467 C 396.34689,568.77621 387.2456,572.95305 378.0383,576.70024 C 370.90185,579.43025 363.63183,581.8002 356.33005,584.0445 C 344.39738,587.6055 332.24775,590.3717 320.09252,593.0511 C 305.75374,596.1293 291.30009,598.6337 276.8489,601.1168 C 264.94039,603.1307 253.00398,604.9774 241.04416,606.6594 C 232.95279,607.8482 224.84417,608.9132 216.74232,610.0272 C 210.14135,610.8739 203.56265,611.89 196.94321,612.5907 C 185.30223,614.0322 157.53788,617.3574 155.29054,617.5127 z" />
  </g>
</svg>
