<svg xmlns="http://www.w3.org/2000/svg" viewBox="0 0 523 474"><defs><style>.cls-1{fill:#fff;}.cls-2,.cls-7{font-size:12px;}.cls-2,.cls-5,.cls-6,.cls-7{fill:#1d1d1b;}.cls-2{font-family:ArialMT, Arial;}.cls-3{fill:#ffde00;}.cls-4{fill:#010101;}.cls-5{font-size:6px;}.cls-5,.cls-6,.cls-7{font-family:DejaVuSansMono, DejaVu Sans Mono;}.cls-6{font-size:8px;}</style></defs><g id="Ebene_3" data-name="Ebene 3"><rect class="cls-1" width="523" height="474"/></g><g id="Ebene_2" data-name="Ebene 2"><text class="cls-2" transform="translate(10.1 431.41)">Solution:</text><rect class="cls-3" x="298.5" y="442.5" width="24" height="24"/><path class="cls-4" d="M322,443v23H299V443h23m1-1H298v25h25V442Z" transform="translate(0)"/><rect class="cls-3" x="322.5" y="442.5" width="24" height="24"/><path class="cls-4" d="M346,443v23H323V443h23m1-1H322v25h25V442Z" transform="translate(0)"/><rect class="cls-3" x="250.5" y="442.5" width="24" height="24"/><path class="cls-4" d="M274,443v23H251V443h23m1-1H250v25h25V442Z" transform="translate(0)"/><rect class="cls-3" x="274.5" y="442.5" width="24" height="24"/><path class="cls-4" d="M298,443v23H275V443h23m1-1H274v25h25V442Z" transform="translate(0)"/><rect class="cls-3" x="202.5" y="442.5" width="24" height="24"/><path class="cls-4" d="M226,443v23H203V443h23m1-1H202v25h25V442Z" transform="translate(0)"/><rect class="cls-3" x="226.5" y="442.5" width="24" height="24"/><path class="cls-4" d="M250,443v23H227V443h23m1-1H226v25h25V442Z" transform="translate(0)"/><rect class="cls-3" x="154.5" y="442.5" width="24" height="24"/><path class="cls-4" d="M178,443v23H155V443h23m1-1H154v25h25V442Z" transform="translate(0)"/><rect class="cls-3" x="178.5" y="442.5" width="24" height="24"/><path class="cls-4" d="M202,443v23H179V443h23m1-1H178v25h25V442Z" transform="translate(0)"/><rect class="cls-3" x="106.5" y="442.5" width="24" height="24"/><path class="cls-4" d="M130,443v23H107V443h23m1-1H106v25h25V442Z" transform="translate(0)"/><rect class="cls-3" x="130.5" y="442.5" width="24" height="24"/><path class="cls-4" d="M154,443v23H131V443h23m1-1H130v25h25V442Z" transform="translate(0)"/><rect class="cls-3" x="10.5" y="442.5" width="24" height="24"/><path class="cls-4" d="M34,443v23H11V443H34m1-1H10v25H35V442Z" transform="translate(0)"/><rect class="cls-3" x="34.5" y="442.5" width="24" height="24"/><path class="cls-4" d="M58,443v23H35V443H58m1-1H34v25H59V442Z" transform="translate(0)"/><rect class="cls-3" x="58.5" y="442.5" width="24" height="24"/><path class="cls-4" d="M82,443v23H59V443H82m1-1H58v25H83V442Z" transform="translate(0)"/><rect class="cls-3" x="82.5" y="442.5" width="24" height="24"/><path class="cls-4" d="M106,443v23H83V443h23m1-1H82v25h25V442Z" transform="translate(0)"/><rect class="cls-1" x="346.5" y="345.5" width="24" height="24"/><path class="cls-4" d="M370,346v23H347V346h23m1-1H346v25h25V345Z" transform="translate(0)"/><rect class="cls-1" x="394.5" y="345.5" width="24" height="24"/><path class="cls-4" d="M418,346v23H395V346h23m1-1H394v25h25V345Z" transform="translate(0)"/><rect class="cls-1" x="370.5" y="345.5" width="24" height="24"/><path class="cls-4" d="M394,346v23H371V346h23m1-1H370v25h25V345Z" transform="translate(0)"/><rect class="cls-1" x="298.5" y="345.5" width="24" height="24"/><path class="cls-4" d="M322,346v23H299V346h23m1-1H298v25h25V345Z" transform="translate(0)"/><rect class="cls-1" x="322.5" y="345.5" width="24" height="24"/><path class="cls-4" d="M346,346v23H323V346h23m1-1H322v25h25V345Z" transform="translate(0)"/><rect class="cls-1" x="250.5" y="345.5" width="24" height="24"/><path class="cls-4" d="M274,346v23H251V346h23m1-1H250v25h25V345Z" transform="translate(0)"/><rect class="cls-1" x="274.5" y="345.5" width="24" height="24"/><path class="cls-4" d="M298,346v23H275V346h23m1-1H274v25h25V345Z" transform="translate(0)"/><rect class="cls-1" x="394.5" y="297.5" width="24" height="24"/><path class="cls-4" d="M418,298v23H395V298h23m1-1H394v25h25V297Z" transform="translate(0)"/><rect class="cls-1" x="394.5" y="273.5" width="24" height="24"/><path class="cls-4" d="M418,274v23H395V274h23m1-1H394v25h25V273Z" transform="translate(0)"/><rect class="cls-1" x="34.5" y="153.5" width="24" height="24"/><path class="cls-4" d="M58,154v23H35V154H58m1-1H34v25H59V153Z" transform="translate(0)"/><rect class="cls-1" x="58.5" y="153.5" width="24" height="24"/><path class="cls-4" d="M82,154v23H59V154H82m1-1H58v25H83V153Z" transform="translate(0)"/><rect class="cls-1" x="10.5" y="153.5" width="24" height="24"/><path class="cls-4" d="M34,154v23H11V154H34m1-1H10v25H35V153Z" transform="translate(0)"/><rect class="cls-1" x="106.5" y="153.5" width="24" height="24"/><path class="cls-4" d="M130,154v23H107V154h23m1-1H106v25h25V153Z" transform="translate(0)"/><rect class="cls-1" x="130.5" y="153.5" width="24" height="24"/><path class="cls-4" d="M154,154v23H131V154h23m1-1H130v25h25V153Z" transform="translate(0)"/><rect class="cls-1" x="82.5" y="153.5" width="24" height="24"/><path class="cls-4" d="M106,154v23H83V154h23m1-1H82v25h25V153Z" transform="translate(0)"/><rect class="cls-1" x="178.5" y="153.5" width="24" height="24"/><path class="cls-4" d="M202,154v23H179V154h23m1-1H178v25h25V153Z" transform="translate(0)"/><rect class="cls-1" x="202.5" y="153.5" width="24" height="24"/><path class="cls-4" d="M226,154v23H203V154h23m1-1H202v25h25V153Z" transform="translate(0)"/><rect class="cls-1" x="154.5" y="153.5" width="24" height="24"/><path class="cls-4" d="M178,154v23H155V154h23m1-1H154v25h25V153Z" transform="translate(0)"/><rect class="cls-1" x="250.5" y="153.5" width="24" height="24"/><path class="cls-4" d="M274,154v23H251V154h23m1-1H250v25h25V153Z" transform="translate(0)"/><rect class="cls-1" x="226.5" y="9.5" width="24" height="24"/><path class="cls-4" d="M250,10V33H227V10h23m1-1H226V34h25V9Z" transform="translate(0)"/><rect class="cls-1" x="226.5" y="33.5" width="24" height="24"/><path class="cls-4" d="M250,34V57H227V34h23m1-1H226V58h25V33Z" transform="translate(0)"/><rect class="cls-1" x="226.5" y="57.5" width="24" height="24"/><path class="cls-4" d="M250,58V81H227V58h23m1-1H226V82h25V57Z" transform="translate(0)"/><rect class="cls-1" x="226.5" y="81.5" width="24" height="24"/><path class="cls-4" d="M250,82v23H227V82h23m1-1H226v25h25V81Z" transform="translate(0)"/><rect class="cls-1" x="226.5" y="129.5" width="24" height="24"/><path class="cls-4" d="M250,130v23H227V130h23m1-1H226v25h25V129Z" transform="translate(0)"/><rect class="cls-1" x="322.5" y="153.5" width="24" height="24"/><path class="cls-4" d="M346,154v23H323V154h23m1-1H322v25h25V153Z" transform="translate(0)"/><rect class="cls-1" x="346.5" y="153.5" width="24" height="24"/><path class="cls-4" d="M370,154v23H347V154h23m1-1H346v25h25V153Z" transform="translate(0)"/><rect class="cls-1" x="298.5" y="153.5" width="24" height="24"/><path class="cls-4" d="M322,154v23H299V154h23m1-1H298v25h25V153Z" transform="translate(0)"/><rect class="cls-1" x="394.5" y="153.5" width="24" height="24"/><path class="cls-4" d="M418,154v23H395V154h23m1-1H394v25h25V153Z" transform="translate(0)"/><rect class="cls-1" x="418.5" y="153.5" width="24" height="24"/><path class="cls-4" d="M442,154v23H419V154h23m1-1H418v25h25V153Z" transform="translate(0)"/><rect class="cls-1" x="370.5" y="153.5" width="24" height="24"/><path class="cls-4" d="M394,154v23H371V154h23m1-1H370v25h25V153Z" transform="translate(0)"/><rect class="cls-1" x="490.5" y="153.5" width="24" height="24"/><path class="cls-4" d="M514,154v23H491V154h23m1-1H490v25h25V153Z" transform="translate(0)"/><rect class="cls-1" x="442.5" y="153.5" width="24" height="24"/><path class="cls-4" d="M466,154v23H443V154h23m1-1H442v25h25V153Z" transform="translate(0)"/><rect class="cls-1" x="274.5" y="105.5" width="24" height="24"/><path class="cls-4" d="M298,106v23H275V106h23m1-1H274v25h25V105Z" transform="translate(0)"/><rect class="cls-1" x="250.5" y="105.5" width="24" height="24"/><path class="cls-4" d="M251,106h23v23H251V106m-1-1v25h25V105Z" transform="translate(0)"/><rect class="cls-1" x="226.5" y="105.5" width="24" height="24"/><path class="cls-4" d="M227,106h23v23H227V106m-1-1v25h25V105Z" transform="translate(0)"/><rect class="cls-1" x="202.5" y="105.5" width="24" height="24"/><path class="cls-4" d="M226,106v23H203V106h23m1-1H202v25h25V105Z" transform="translate(0)"/><rect class="cls-1" x="178.5" y="105.5" width="24" height="24"/><path class="cls-4" d="M202,106v23H179V106h23m1-1H178v25h25V105Z" transform="translate(0)"/><rect class="cls-1" x="154.5" y="105.5" width="24" height="24"/><path class="cls-4" d="M178,106v23H155V106h23m1-1H154v25h25V105Z" transform="translate(0)"/><rect class="cls-1" x="130.5" y="105.5" width="24" height="24"/><path class="cls-4" d="M131,106h23v23H131V106m-1-1v25h25V105Z" transform="translate(0)"/><rect class="cls-1" x="82.5" y="105.5" width="24" height="24"/><path class="cls-4" d="M83,106h23v23H83V106m-1-1v25h25V105Z" transform="translate(0)"/><rect class="cls-1" x="226.5" y="249.5" width="24" height="24"/><path class="cls-4" d="M250,250v23H227V250h23m1-1H226v25h25V249Z" transform="translate(0)"/><rect class="cls-1" x="274.5" y="249.5" width="24" height="24"/><path class="cls-4" d="M298,250v23H275V250h23m1-1H274v25h25V249Z" transform="translate(0)"/><rect class="cls-1" x="418.5" y="105.5" width="24" height="24"/><path class="cls-4" d="M419,106h23v23H419V106m-1-1v25h25V105Z" transform="translate(0)"/><rect class="cls-1" x="418.5" y="129.5" width="24" height="24"/><path class="cls-4" d="M419,130h23v23H419V130m-1-1v25h25V129Z" transform="translate(0)"/><rect class="cls-1" x="298.5" y="201.5" width="24" height="24"/><path class="cls-4" d="M299,202h23v23H299V202m-1-1v25h25V201Z" transform="translate(0)"/><rect class="cls-1" x="298.5" y="225.5" width="24" height="24"/><path class="cls-4" d="M322,226v23H299V226h23m1-1H298v25h25V225Z" transform="translate(0)"/><rect class="cls-1" x="298.5" y="249.5" width="24" height="24"/><path class="cls-4" d="M322,250v23H299V250h23m1-1H298v25h25V249Z" transform="translate(0)"/><rect class="cls-1" x="322.5" y="249.5" width="24" height="24"/><path class="cls-4" d="M346,250v23H323V250h23m1-1H322v25h25V249Z" transform="translate(0)"/><rect class="cls-1" x="346.5" y="249.5" width="24" height="24"/><path class="cls-4" d="M370,250v23H347V250h23m1-1H346v25h25V249Z" transform="translate(0)"/><rect class="cls-1" x="370.5" y="249.5" width="24" height="24"/><path class="cls-4" d="M394,250v23H371V250h23m1-1H370v25h25V249Z" transform="translate(0)"/><rect class="cls-1" x="82.5" y="177.5" width="24" height="24"/><path class="cls-4" d="M83,178h23v23H83V178m-1-1v25h25V177Z" transform="translate(0)"/><rect class="cls-1" x="82.5" y="129.5" width="24" height="24"/><path class="cls-4" d="M83,130h23v23H83V130m-1-1v25h25V129Z" transform="translate(0)"/><rect class="cls-1" x="82.5" y="249.5" width="24" height="24"/><path class="cls-4" d="M106,250v23H83V250h23m1-1H82v25h25V249Z" transform="translate(0)"/><rect class="cls-1" x="130.5" y="201.5" width="24" height="24"/><path class="cls-4" d="M154,202v23H131V202h23m1-1H130v25h25V201Z" transform="translate(0)"/><rect class="cls-1" x="202.5" y="201.5" width="24" height="24"/><path class="cls-4" d="M226,202v23H203V202h23m1-1H202v25h25V201Z" transform="translate(0)"/><rect class="cls-1" x="178.5" y="201.5" width="24" height="24"/><path class="cls-4" d="M202,202v23H179V202h23m1-1H178v25h25V201Z" transform="translate(0)"/><rect class="cls-1" x="106.5" y="201.5" width="24" height="24"/><path class="cls-4" d="M107,202h23v23H107V202m-1-1v25h25V201Z" transform="translate(0)"/><rect class="cls-1" x="10.5" y="201.5" width="24" height="24"/><path class="cls-4" d="M11,202H34v23H11V202m-1-1v25H35V201Z" transform="translate(0)"/><rect class="cls-1" x="34.5" y="201.5" width="24" height="24"/><path class="cls-4" d="M35,202H58v23H35V202m-1-1v25H59V201Z" transform="translate(0)"/><rect class="cls-1" x="58.5" y="201.5" width="24" height="24"/><path class="cls-4" d="M59,202H82v23H59V202m-1-1v25H83V201Z" transform="translate(0)"/><rect class="cls-1" x="82.5" y="201.5" width="24" height="24"/><path class="cls-4" d="M83,202h23v23H83V202m-1-1v25h25V201Z" transform="translate(0)"/><rect class="cls-1" x="202.5" y="345.5" width="24" height="24"/><path class="cls-4" d="M226,346v23H203V346h23m1-1H202v25h25V345Z" transform="translate(0)"/><rect class="cls-1" x="154.5" y="345.5" width="24" height="24"/><path class="cls-4" d="M155,346h23v23H155V346m-1-1v25h25V345Z" transform="translate(0)"/><rect class="cls-1" x="178.5" y="345.5" width="24" height="24"/><path class="cls-4" d="M179,346h23v23H179V346m-1-1v25h25V345Z" transform="translate(0)"/><rect class="cls-1" x="106.5" y="345.5" width="24" height="24"/><path class="cls-4" d="M130,346v23H107V346h23m1-1H106v25h25V345Z" transform="translate(0)"/><rect class="cls-1" x="130.5" y="345.5" width="24" height="24"/><path class="cls-4" d="M154,346v23H131V346h23m1-1H130v25h25V345Z" transform="translate(0)"/><rect class="cls-1" x="10.5" y="345.5" width="24" height="24"/><path class="cls-4" d="M34,346v23H11V346H34m1-1H10v25H35V345Z" transform="translate(0)"/><rect class="cls-1" x="34.5" y="345.5" width="24" height="24"/><path class="cls-4" d="M58,346v23H35V346H58m1-1H34v25H59V345Z" transform="translate(0)"/><rect class="cls-1" x="58.5" y="345.5" width="24" height="24"/><path class="cls-4" d="M82,346v23H59V346H82m1-1H58v25H83V345Z" transform="translate(0)"/><rect class="cls-1" x="82.5" y="273.5" width="24" height="24"/><path class="cls-4" d="M106,274v23H83V274h23m1-1H82v25h25V273Z" transform="translate(0)"/><rect class="cls-1" x="82.5" y="321.5" width="24" height="24"/><path class="cls-4" d="M106,322v23H83V322h23m1-1H82v25h25V321Z" transform="translate(0)"/><rect class="cls-1" x="82.5" y="345.5" width="24" height="24"/><path class="cls-4" d="M106,346v23H83V346h23m1-1H82v25h25V345Z" transform="translate(0)"/><rect class="cls-1" x="82.5" y="297.5" width="24" height="24"/><path class="cls-4" d="M106,298v23H83V298h23m1-1H82v25h25V297Z" transform="translate(0)"/><rect class="cls-1" x="10.5" y="33.5" width="24" height="24"/><path class="cls-4" d="M34,34V57H11V34H34m1-1H10V58H35V33Z" transform="translate(0)"/><rect class="cls-1" x="10.5" y="57.5" width="24" height="24"/><path class="cls-4" d="M11,58H34V81H11V58m-1-1V82H35V57Z" transform="translate(0)"/><rect class="cls-1" x="10.5" y="129.5" width="24" height="24"/><path class="cls-4" d="M11,130H34v23H11V130m-1-1v25H35V129Z" transform="translate(0)"/><rect class="cls-1" x="10.5" y="81.5" width="24" height="24"/><path class="cls-4" d="M11,82H34v23H11V82m-1-1v25H35V81Z" transform="translate(0)"/><rect class="cls-1" x="154.5" y="57.5" width="24" height="24"/><path class="cls-4" d="M178,58V81H155V58h23m1-1H154V82h25V57Z" transform="translate(0)"/><rect class="cls-1" x="178.5" y="57.5" width="24" height="24"/><path class="cls-4" d="M202,58V81H179V58h23m1-1H178V82h25V57Z" transform="translate(0)"/><rect class="cls-1" x="250.5" y="57.5" width="24" height="24"/><path class="cls-4" d="M274,58V81H251V58h23m1-1H250V82h25V57Z" transform="translate(0)"/><rect class="cls-1" x="274.5" y="57.5" width="24" height="24"/><path class="cls-4" d="M298,58V81H275V58h23m1-1H274V82h25V57Z" transform="translate(0)"/><rect class="cls-1" x="298.5" y="57.5" width="24" height="24"/><path class="cls-4" d="M322,58V81H299V58h23m1-1H298V82h25V57Z" transform="translate(0)"/><rect class="cls-1" x="322.5" y="57.5" width="24" height="24"/><path class="cls-4" d="M346,58V81H323V58h23m1-1H322V82h25V57Z" transform="translate(0)"/><rect class="cls-1" x="466.5" y="153.5" width="24" height="24"/><path class="cls-4" d="M490,154v23H467V154h23m1-1H466v25h25V153Z" transform="translate(0)"/><rect class="cls-1" x="466.5" y="129.5" width="24" height="24"/><path class="cls-4" d="M490,130v23H467V130h23m1-1H466v25h25V129Z" transform="translate(0)"/><rect class="cls-1" x="466.5" y="105.5" width="24" height="24"/><path class="cls-4" d="M490,106v23H467V106h23m1-1H466v25h25V105Z" transform="translate(0)"/><rect class="cls-1" x="466.5" y="81.5" width="24" height="24"/><path class="cls-4" d="M490,82v23H467V82h23m1-1H466v25h25V81Z" transform="translate(0)"/><rect class="cls-1" x="466.5" y="57.5" width="24" height="24"/><path class="cls-4" d="M490,58V81H467V58h23m1-1H466V82h25V57Z" transform="translate(0)"/><rect class="cls-1" x="466.5" y="249.5" width="24" height="24"/><path class="cls-4" d="M490,250v23H467V250h23m1-1H466v25h25V249Z" transform="translate(0)"/><rect class="cls-1" x="394.5" y="201.5" width="24" height="24"/><path class="cls-4" d="M418,202v23H395V202h23m1-1H394v25h25V201Z" transform="translate(0)"/><rect class="cls-1" x="394.5" y="225.5" width="24" height="24"/><path class="cls-4" d="M418,226v23H395V226h23m1-1H394v25h25V225Z" transform="translate(0)"/><rect class="cls-1" x="418.5" y="225.5" width="24" height="24"/><path class="cls-4" d="M442,226v23H419V226h23m1-1H418v25h25V225Z" transform="translate(0)"/><rect class="cls-1" x="466.5" y="225.5" width="24" height="24"/><path class="cls-4" d="M490,226v23H467V226h23m1-1H466v25h25V225Z" transform="translate(0)"/><rect class="cls-1" x="466.5" y="177.5" width="24" height="24"/><path class="cls-4" d="M490,178v23H467V178h23m1-1H466v25h25V177Z" transform="translate(0)"/><rect class="cls-1" x="490.5" y="321.5" width="24" height="24"/><path class="cls-4" d="M514,322v23H491V322h23m1-1H490v25h25V321Z" transform="translate(0)"/><rect class="cls-1" x="466.5" y="297.5" width="24" height="24"/><path class="cls-4" d="M490,298v23H467V298h23m1-1H466v25h25V297Z" transform="translate(0)"/><rect class="cls-1" x="466.5" y="273.5" width="24" height="24"/><path class="cls-4" d="M490,274v23H467V274h23m1-1H466v25h25V273Z" transform="translate(0)"/><rect class="cls-1" x="466.5" y="345.5" width="24" height="24"/><path class="cls-4" d="M490,346v23H467V346h23m1-1H466v25h25V345Z" transform="translate(0)"/><text class="cls-5" transform="translate(227.86 15.89)">2</text><text class="cls-5" transform="translate(11.45 39.96)">1</text><rect class="cls-3" x="418.5" y="81.5" width="24" height="24"/><path class="cls-4" d="M419,82h23v23H419V82m-1-1v25h25V81Z" transform="translate(0)"/><text class="cls-6" transform="translate(436.35 104.53)">1</text><rect class="cls-3" x="226.5" y="345.5" width="24" height="24"/><path class="cls-4" d="M250,346v23H227V346h23m1-1H226v25h25V345Z" transform="translate(0)"/><text class="cls-6" transform="translate(245.08 368.53)">2</text><rect class="cls-3" x="82.5" y="225.5" width="24" height="24"/><path class="cls-4" d="M83,226h23v23H83V226m-1-1v25h25V225Z" transform="translate(0)"/><text class="cls-6" transform="translate(100.82 248.53)">3</text><rect class="cls-3" x="250.5" y="249.5" width="24" height="24"/><path class="cls-4" d="M274,250v23H251V250h23m1-1H250v25h25V249Z" transform="translate(0)"/><text class="cls-6" transform="translate(268.88 272.53)">4</text><rect class="cls-3" x="466.5" y="321.5" width="24" height="24"/><path class="cls-4" d="M490,322v23H467V322h23m1-1H466v25h25V321Z" transform="translate(0)"/><text class="cls-6" transform="translate(484.73 344.53)">5</text><rect class="cls-3" x="226.5" y="153.5" width="24" height="24"/><path class="cls-4" d="M227,154h23v23H227V154m-1-1v25h25V153Z" transform="translate(0)"/><text class="cls-6" transform="translate(245.29 176.53)">6</text><rect class="cls-3" x="274.5" y="153.5" width="24" height="24"/><path class="cls-4" d="M275,154h23v23H275V154m-1-1v25h25V153Z" transform="translate(0)"/><text class="cls-6" transform="translate(292.45 176.53)">7</text><rect class="cls-3" x="466.5" y="201.5" width="24" height="24"/><path class="cls-4" d="M467,202h23v23H467V202m-1-1v25h25V201Z" transform="translate(0)"/><text class="cls-6" transform="translate(484.67 224.53)">8</text><rect class="cls-3" x="394.5" y="249.5" width="24" height="24"/><path class="cls-4" d="M418,250v23H395V250h23m1-1H394v25h25V249Z" transform="translate(0)"/><text class="cls-6" transform="translate(412.72 272.53)">9</text><rect class="cls-3" x="442.5" y="225.5" width="24" height="24"/><path class="cls-4" d="M443,226h23v23H443V226m-1-1v25h25V225Z" transform="translate(0)"/><text class="cls-6" transform="translate(456.22 248.53)">10</text><rect class="cls-3" x="106.5" y="105.5" width="24" height="24"/><path class="cls-4" d="M107,106h23v23H107V106m-1-1v25h25V105Z" transform="translate(0)"/><text class="cls-6" transform="translate(120.01 128.53)">11</text><rect class="cls-3" x="154.5" y="201.5" width="24" height="24"/><path class="cls-4" d="M155,202h23v23H155V202m-1-1v25h25V201Z" transform="translate(0)"/><text class="cls-6" transform="translate(168.01 224.53)">12</text><rect class="cls-3" x="202.5" y="57.5" width="24" height="24"/><path class="cls-4" d="M203,58h23V81H203V58m-1-1V82h25V57Z" transform="translate(0)"/><text class="cls-6" transform="translate(215.75 80.53)">13</text><rect class="cls-3" x="10.5" y="105.5" width="24" height="24"/><path class="cls-4" d="M11,106H34v23H11V106m-1-1v25H35V105Z" transform="translate(0)"/><text class="cls-6" transform="translate(23.86 128.53)">14</text><text class="cls-5" transform="translate(467.37 327.62)">13</text><text class="cls-5" transform="translate(227.49 256.18)">12</text><text class="cls-5" transform="translate(395.33 231.55)">11</text><text class="cls-5" transform="translate(395.33 207.48)">10</text><text class="cls-5" transform="translate(299.4 207.48)">9</text><text class="cls-5" transform="translate(11.49 207.36)">8</text><text class="cls-5" transform="translate(11.85 160.15)">7</text><text class="cls-5" transform="translate(83.63 111.93)">6</text><text class="cls-5" transform="translate(419.77 88.09)">5</text><text class="cls-5" transform="translate(467.79 63.6)">4</text><text class="cls-5" transform="translate(155.9 63.96)">3</text><text class="cls-5" transform="translate(11.22 351.25)">14</text><text class="cls-6" transform="translate(335.86 465.53)">14</text><text class="cls-6" transform="translate(311.75 465.53)">13</text><text class="cls-6" transform="translate(288.01 465.53)">12</text><text class="cls-6" transform="translate(264.01 465.53)">11</text><text class="cls-6" transform="translate(240.22 465.53)">10</text><text class="cls-6" transform="translate(220.72 465.53)">9</text><text class="cls-6" transform="translate(196.67 465.53)">8</text><text class="cls-6" transform="translate(172.45 465.53)">7</text><text class="cls-6" transform="translate(149.29 465.53)">6</text><text class="cls-6" transform="translate(124.73 465.53)">5</text><text class="cls-6" transform="translate(100.88 465.53)">4</text><text class="cls-6" transform="translate(76.82 465.53)">3</text><text class="cls-6" transform="translate(53.08 465.53)">2</text><text class="cls-6" transform="translate(28.35 465.53)">1</text></g><g id="Ebene_1" data-name="Ebene 1"><text class="cls-7" transform="translate(18.89 120.44)">T</text><text class="cls-7" transform="translate(210.89 72.44)">A</text><text class="cls-7" transform="translate(162.89 216.44)">E</text><text class="cls-7" transform="translate(114.89 120.44)">R</text><text class="cls-7" transform="translate(450.89 240.44)">G</text><text class="cls-7" transform="translate(402.89 264.44)">S</text><text class="cls-7" transform="translate(474.89 216.44)">I</text><text class="cls-7" transform="translate(282.89 168.44)">Y</text><text class="cls-7" transform="translate(474.89 336.44)">O</text><text class="cls-7" transform="translate(258.89 264.44)">L</text><text class="cls-7" transform="translate(90.89 240.44)">O</text><text class="cls-7" transform="translate(234.89 360.44)">I</text><text class="cls-7" transform="translate(426.89 96.44)">B</text><text class="cls-7" transform="translate(330.89 457.44)">T</text><text class="cls-7" transform="translate(306.89 457.44)">A</text><text class="cls-7" transform="translate(282.89 457.44)">E</text><text class="cls-7" transform="translate(258.89 457.44)">R</text><text class="cls-7" transform="translate(234.89 457.44)">G</text><text class="cls-7" transform="translate(210.89 457.44)">S</text><text class="cls-7" transform="translate(186.89 457.44)">I</text><text class="cls-7" transform="translate(162.89 457.44)">Y</text><text class="cls-7" transform="translate(138.89 457.44)">G</text><text class="cls-7" transform="translate(114.89 457.44)">O</text><text class="cls-7" transform="translate(90.89 457.44)">L</text><text class="cls-7" transform="translate(66.89 457.44)">O</text><text class="cls-7" transform="translate(42.89 457.44)">I</text><text class="cls-7" transform="translate(18.89 457.44)">B</text><text class="cls-7" transform="translate(210.89 216.44)">D</text><text class="cls-7" transform="translate(186.89 216.44)">N</text><text class="cls-7" transform="translate(138.89 216.44)">D</text><text class="cls-7" transform="translate(114.89 216.44)">E</text><text class="cls-7" transform="translate(66.89 216.44)">I</text><text class="cls-7" transform="translate(42.89 216.44)">A</text><text class="cls-7" transform="translate(18.89 216.44)">P</text><text class="cls-7" transform="translate(306.89 240.44)">T</text><text class="cls-7" transform="translate(306.89 216.44)">H</text><text class="cls-7" transform="translate(426.89 144.44)">S</text><text class="cls-7" transform="translate(426.89 120.44)">A</text><text class="cls-7" transform="translate(378.89 264.44)">R</text><text class="cls-7" transform="translate(354.89 264.44)">E</text><text class="cls-7" transform="translate(330.89 264.44)">T</text><text class="cls-7" transform="translate(306.89 264.44)">S</text><text class="cls-7" transform="translate(282.89 264.44)">U</text><text class="cls-7" transform="translate(234.89 264.44)">C</text><text class="cls-7" transform="translate(378.89 360.44)">R</text><text class="cls-7" transform="translate(402.89 360.44)">E</text><text class="cls-7" transform="translate(354.89 360.44)">O</text><text class="cls-7" transform="translate(330.89 360.44)">C</text><text class="cls-7" transform="translate(306.89 360.44)">S</text><text class="cls-7" transform="translate(282.89 360.44)">Y</text><text class="cls-7" transform="translate(258.89 360.44)">T</text><text class="cls-7" transform="translate(210.89 360.44)">L</text><text class="cls-7" transform="translate(186.89 360.44)">A</text><text class="cls-7" transform="translate(162.89 360.44)">U</text><text class="cls-7" transform="translate(138.89 360.44)">Q</text><text class="cls-7" transform="translate(114.89 360.44)">D</text><text class="cls-7" transform="translate(66.89 360.44)">R</text><text class="cls-7" transform="translate(42.89 360.44)">H</text><text class="cls-7" transform="translate(18.89 360.44)">P</text><text class="cls-7" transform="translate(402.89 312.44)">Q</text><text class="cls-7" transform="translate(402.89 288.44)">T</text><text class="cls-7" transform="translate(402.89 216.44)">F</text><text class="cls-7" transform="translate(426.89 240.44)">T</text><text class="cls-7" transform="translate(402.89 240.44)">A</text><text class="cls-7" transform="translate(234.89 144.44)">N</text><text class="cls-7" transform="translate(234.89 96.44)">P</text><text class="cls-7" transform="translate(234.89 72.44)">P</text><text class="cls-7" transform="translate(234.89 48.44)">A</text><text class="cls-7" transform="translate(234.89 24.44)">M</text><text class="cls-7" transform="translate(18.89 144.44)">P</text><text class="cls-7" transform="translate(18.89 96.44)">N</text><text class="cls-7" transform="translate(18.89 72.44)">D</text><text class="cls-7" transform="translate(18.89 48.44)">D</text><text/><text class="cls-7" transform="translate(90.89 168.44)">U</text><text class="cls-7" transform="translate(114.89 168.44)">E</text><text class="cls-7" transform="translate(18.89 168.44)">S</text><text class="cls-7" transform="translate(138.89 168.44)">N</text><text class="cls-7" transform="translate(162.89 168.44)">C</text><text class="cls-7" transform="translate(186.89 168.44)">I</text><text class="cls-7" transform="translate(210.89 168.44)">N</text><text class="cls-7" transform="translate(258.89 168.44)">B</text><text class="cls-7" transform="translate(306.89 168.44)">S</text><text class="cls-7" transform="translate(330.89 168.44)">Y</text><text class="cls-7" transform="translate(354.89 168.44)">N</text><text class="cls-7" transform="translate(378.89 168.44)">T</text><text class="cls-7" transform="translate(498.89 336.44)">H</text><text class="cls-7" transform="translate(402.89 168.44)">H</text><text class="cls-7" transform="translate(426.89 168.44)">E</text><text class="cls-7" transform="translate(450.89 168.44)">S</text><text class="cls-7" transform="translate(474.89 168.44)">I</text><text class="cls-7" transform="translate(498.89 168.44)">S</text><text class="cls-7" transform="translate(90.89 120.44)">F</text><text class="cls-7" transform="translate(90.89 144.44)">L</text><text class="cls-7" transform="translate(90.89 192.44)">O</text><text class="cls-7" transform="translate(90.89 216.44)">R</text><text class="cls-7" transform="translate(90.89 264.44)">P</text><text class="cls-7" transform="translate(90.89 288.44)">H</text><text class="cls-7" transform="translate(90.89 312.44)">O</text><text class="cls-7" transform="translate(90.89 336.44)">R</text><text class="cls-7" transform="translate(90.89 360.44)">E</text><text class="cls-7" transform="translate(42.89 168.44)">E</text><text class="cls-7" transform="translate(66.89 168.44)">Q</text><text class="cls-7" transform="translate(162.89 72.44)">A</text><text class="cls-7" transform="translate(186.89 72.44)">D</text><text class="cls-7" transform="translate(258.89 72.44)">T</text><text class="cls-7" transform="translate(282.89 72.44)">E</text><text class="cls-7" transform="translate(306.89 72.44)">R</text><text class="cls-7" transform="translate(330.89 72.44)">S</text><text class="cls-7" transform="translate(474.89 72.44)">A</text><text class="cls-7" transform="translate(474.89 96.44)">M</text><text class="cls-7" transform="translate(474.89 120.44)">P</text><text class="cls-7" transform="translate(474.89 144.44)">L</text><text class="cls-7" transform="translate(474.89 192.44)">F</text><text class="cls-7" transform="translate(474.89 240.44)">C</text><text class="cls-7" transform="translate(474.89 264.44)">A</text><text class="cls-7" transform="translate(474.89 288.44)">T</text><text class="cls-7" transform="translate(474.89 312.44)">I</text><text class="cls-7" transform="translate(474.89 360.44)">N</text><text class="cls-7" transform="translate(282.89 120.44)">K</text><text class="cls-7" transform="translate(258.89 120.44)">C</text><text class="cls-7" transform="translate(234.89 120.44)">I</text><text class="cls-7" transform="translate(210.89 120.44)">R</text><text class="cls-7" transform="translate(186.89 120.44)">E</text><text class="cls-7" transform="translate(162.89 120.44)">D</text><text class="cls-7" transform="translate(138.89 120.44)">E</text><text class="cls-7" transform="translate(234.89 168.44)">G</text></g></svg>