<?xml version="1.0" encoding="UTF-8" standalone="no"?>
<svg
   xmlns:dc="http://purl.org/dc/elements/1.1/"
   xmlns:cc="http://creativecommons.org/ns#"
   xmlns:rdf="http://www.w3.org/1999/02/22-rdf-syntax-ns#"
   xmlns:svg="http://www.w3.org/2000/svg"
   xmlns="http://www.w3.org/2000/svg"
   viewBox="0 0 580 444"
   height="444"
   width="580"
   xml:space="preserve"
   id="svg2"
   version="1.1"><metadata
     id="metadata8"><rdf:RDF><cc:Work
         rdf:about=""><dc:format>image/svg+xml</dc:format><dc:type
           rdf:resource="http://purl.org/dc/dcmitype/StillImage" /><dc:title></dc:title></cc:Work></rdf:RDF></metadata><defs
     id="defs6"><clipPath
       id="clipPath62"
       clipPathUnits="userSpaceOnUse"><path
         style="clip-rule:evenodd"
         id="path60"
         d="M 0,0 H 4350 V 3330 H 0 Z m 2924.4,2817.8 106.8,-6.6 3,45 -107.4,6 v 0 l 79.8,-27 z" /></clipPath><clipPath
       id="clipPath76"
       clipPathUnits="userSpaceOnUse"><path
         style="clip-rule:evenodd"
         id="path74"
         d="M 0,0 H 4350 V 3330 H 0 Z m 1864.2,1811.6 -106.8,10.8 -4.8,-44.4 106.8,-11.4 v 0 l -78,30.6 z" /></clipPath><clipPath
       id="clipPath90"
       clipPathUnits="userSpaceOnUse"><path
         style="clip-rule:evenodd"
         id="path88"
         d="M 0,0 H 4350 V 3330 H 0 Z m 903,1966.4 91.801,-55.8 23.399,38.4 -91.802,55.8 v 0 L 984,1943 Z" /></clipPath><clipPath
       id="clipPath104"
       clipPathUnits="userSpaceOnUse"><path
         style="clip-rule:evenodd"
         id="path102"
         d="M 0,0 H 4350 V 3330 H 0 Z m 3736.2,75.8008 -72,80.3982 -33,-30 71.4,-80.3982 v 0 L 3666,120.801 Z" /></clipPath><clipPath
       id="clipPath118"
       clipPathUnits="userSpaceOnUse"><path
         style="clip-rule:evenodd"
         id="path116"
         d="M 0,0 H 4350 V 3330 H 0 Z m 3930,2774.6 -106.8,-8.4 3.6,-45 106.8,8.4 v 0 l -82.2,15.6 z" /></clipPath><clipPath
       id="clipPath132"
       clipPathUnits="userSpaceOnUse"><path
         style="clip-rule:evenodd"
         id="path130"
         d="M 0,0 H 4350 V 3330 H 0 Z m 2929.2,413.602 106.2,14.398 -6,45 -106.2,-15 v 0 l 83.4,-11.398 z" /></clipPath><clipPath
       id="clipPath146"
       clipPathUnits="userSpaceOnUse"><path
         style="clip-rule:evenodd"
         id="path144"
         d="M 0,0 H 4350 V 3330 H 0 Z m 1811.4,1614.2 -105.6,-19.2 8.4,-44.4 105.6,19.8 v 0 l -83.4,6.6 z" /></clipPath></defs><g
     transform="matrix(1.3333333,0,0,-1.3333333,0,444)"
     id="g10"><g
       transform="scale(0.1)"
       id="g12"><g
         transform="scale(10)"
         id="g14"><text
           id="text18"
           style="font-style:italic;font-variant:normal;font-size:22.00020027px;font-family:Times;-inkscape-font-specification:Times-Italic;writing-mode:lr-tb;fill:#000000;fill-opacity:1;fill-rule:nonzero;stroke:none"
           transform="matrix(1,0,0,-1,108.9,152.9)"><tspan
             id="tspan16"
             y="0"
             x="0 11.0001 18.326166">p(x</tspan></text>
<text
           id="text22"
           style="font-style:italic;font-variant:normal;font-size:18px;font-family:Times;-inkscape-font-specification:Times-Italic;writing-mode:lr-tb;fill:#000000;fill-opacity:1;fill-rule:nonzero;stroke:none"
           transform="matrix(1,0,0,-1,135.9,148.4)"><tspan
             id="tspan20"
             y="0"
             x="0">i</tspan></text>
<text
           id="text26"
           style="font-style:italic;font-variant:normal;font-size:22.00020027px;font-family:Times;-inkscape-font-specification:Times-Italic;writing-mode:lr-tb;fill:#000000;fill-opacity:1;fill-rule:nonzero;stroke:none"
           transform="matrix(1,0,0,-1,144.9,152.9)"><tspan
             id="tspan24"
             y="0"
             x="0 5.5000501">,y</tspan></text>
<text
           id="text30"
           style="font-style:italic;font-variant:normal;font-size:18px;font-family:Times;-inkscape-font-specification:Times-Italic;writing-mode:lr-tb;fill:#000000;fill-opacity:1;fill-rule:nonzero;stroke:none"
           transform="matrix(1,0,0,-1,158.4,148.4)"><tspan
             id="tspan28"
             y="0"
             x="0">j</tspan></text>
<text
           id="text36"
           style="font-style:italic;font-variant:normal;font-size:22.00020027px;font-family:Times;-inkscape-font-specification:Times-Italic;writing-mode:lr-tb;fill:#000000;fill-opacity:1;fill-rule:nonzero;stroke:none"
           transform="matrix(1,0,0,-1,162.9,152.9)"><tspan
             id="tspan32"
             y="0"
             x="0">)</tspan><tspan
             id="tspan34"
             y="-112.5"
             x="162 173.00011 180.32617">q(x</tspan></text>
<text
           id="text40"
           style="font-style:italic;font-variant:normal;font-size:18px;font-family:Times;-inkscape-font-specification:Times-Italic;writing-mode:lr-tb;fill:#000000;fill-opacity:1;fill-rule:nonzero;stroke:none"
           transform="matrix(1,0,0,-1,351.9,256.4)"><tspan
             id="tspan38"
             y="0"
             x="0">i</tspan></text>
<text
           id="text46"
           style="font-style:italic;font-variant:normal;font-size:22.00020027px;font-family:Times;-inkscape-font-specification:Times-Italic;writing-mode:lr-tb;fill:#000000;fill-opacity:1;fill-rule:nonzero;stroke:none"
           transform="matrix(1,0,0,-1,356.4,265.4)"><tspan
             id="tspan42"
             y="0"
             x="0">)</tspan><tspan
             id="tspan44"
             y="243"
             x="-31.5 -20.499901 -13.173834">q(y</tspan></text>
<text
           id="text50"
           style="font-style:italic;font-variant:normal;font-size:18px;font-family:Times;-inkscape-font-specification:Times-Italic;writing-mode:lr-tb;fill:#000000;fill-opacity:1;fill-rule:nonzero;stroke:none"
           transform="matrix(1,0,0,-1,351.9,13.4)"><tspan
             id="tspan48"
             y="0"
             x="0">j</tspan></text>
<text
           id="text54"
           style="font-style:italic;font-variant:normal;font-size:22.00020027px;font-family:Times;-inkscape-font-specification:Times-Italic;writing-mode:lr-tb;fill:#000000;fill-opacity:1;fill-rule:nonzero;stroke:none"
           transform="matrix(1,0,0,-1,356.4,22.4)"><tspan
             id="tspan52"
             y="0"
             x="0">)</tspan></text>
</g><g
         id="g56"><g
           clip-path="url(#clipPath62)"
           id="g58"><path
             id="path64"
             style="fill:none;stroke:#000000;stroke-width:4.5;stroke-linecap:butt;stroke-linejoin:miter;stroke-miterlimit:10;stroke-dasharray:none;stroke-opacity:1"
             d="m 1583.98,2069.01 c 262.69,475.67 763.14,770.99 1306.52,770.99 44.57,0 89.12,-2 133.5,-5.98" /></g></g><path
         id="path66"
         style="fill:#000000;fill-opacity:1;fill-rule:evenodd;stroke:none"
         d="m 2924.4,2817.8 82.2,17.4 -79.8,27 z" /><path
         id="path68"
         style="fill:none;stroke:#000000;stroke-width:9;stroke-linecap:butt;stroke-linejoin:miter;stroke-miterlimit:10;stroke-dasharray:none;stroke-opacity:1"
         d="m 2924.4,2817.8 82.2,17.4 -79.8,27 z" /><g
         id="g70"><g
           clip-path="url(#clipPath76)"
           id="g72"><path
             id="path78"
             style="fill:none;stroke:#000000;stroke-width:4.5;stroke-linecap:butt;stroke-linejoin:miter;stroke-miterlimit:10;stroke-dasharray:none;stroke-opacity:1"
             d="m 3203.96,2564 c -232.76,-476.38 -716.62,-778.5 -1246.82,-778.5 -64.62,0 -129.17,4.52 -193.16,13.51" /></g></g><path
         id="path80"
         style="fill:#000000;fill-opacity:1;fill-rule:evenodd;stroke:none"
         d="m 1864.2,1811.6 -82.8,-14.4 78,-30.6 z" /><path
         id="path82"
         style="fill:none;stroke:#000000;stroke-width:9;stroke-linecap:butt;stroke-linejoin:miter;stroke-miterlimit:10;stroke-dasharray:none;stroke-opacity:1"
         d="m 1864.2,1811.6 -82.8,-14.4 78,-30.6 z" /><g
         id="g84"><g
           clip-path="url(#clipPath90)"
           id="g86"><path
             id="path92"
             style="fill:none;stroke:#000000;stroke-width:4.5;stroke-linecap:butt;stroke-linejoin:miter;stroke-miterlimit:10;stroke-dasharray:none;stroke-opacity:1"
             d="M 999.016,1528.98 C 949.418,1484.89 885.359,1460.54 819,1460.54 c -149.645,0 -270.961,121.32 -270.961,270.96 0,149.64 121.316,270.96 270.961,270.96 66.359,0 130.418,-24.35 180.016,-68.44" /></g></g><path
         id="path94"
         style="fill:#000000;fill-opacity:1;fill-rule:evenodd;stroke:none"
         d="m 903,1966.4 81,-23.4 -57.602,61.8 z" /><path
         id="path96"
         style="fill:none;stroke:#000000;stroke-width:9;stroke-linecap:butt;stroke-linejoin:miter;stroke-miterlimit:10;stroke-dasharray:none;stroke-opacity:1"
         d="m 903,1966.4 81,-23.4 -57.602,61.8 z" /><g
         id="g98"><g
           clip-path="url(#clipPath104)"
           id="g100"><path
             id="path106"
             style="fill:none;stroke:#000000;stroke-width:4.5;stroke-linecap:butt;stroke-linejoin:miter;stroke-miterlimit:10;stroke-dasharray:none;stroke-opacity:1"
             d="m 3834.03,539.027 c 16.54,3.133 33.35,4.715 50.19,4.715 148.85,0 269.52,-120.672 269.52,-269.523 0,-148.852 -120.67,-269.51978 -269.52,-269.51978 -94.04,0 -181.28,49.01558 -230.19,129.33178" /></g></g><path
         id="path108"
         style="fill:#000000;fill-opacity:1;fill-rule:evenodd;stroke:none"
         d="M 3736.2,75.8008 3666,120.801 3702.6,45.8008 Z" /><path
         id="path110"
         style="fill:none;stroke:#000000;stroke-width:9;stroke-linecap:butt;stroke-linejoin:miter;stroke-miterlimit:10;stroke-dasharray:none;stroke-opacity:1"
         d="M 3736.2,75.8008 3666,120.801 3702.6,45.8008 Z" /><g
         id="g112"><g
           clip-path="url(#clipPath118)"
           id="g114"><path
             id="path120"
             style="fill:none;stroke:#000000;stroke-width:4.5;stroke-linecap:butt;stroke-linejoin:miter;stroke-miterlimit:10;stroke-dasharray:none;stroke-opacity:1"
             d="m 3653.99,3239.02 c 54.5,54.5 128.43,85.12 205.51,85.12 160.52,0 290.64,-130.12 290.64,-290.64 0,-160.52 -130.12,-290.64 -290.64,-290.64 -8.51,0 -17.02,0.37 -25.5,1.12" /></g></g><path
         id="path122"
         style="fill:#000000;fill-opacity:1;fill-rule:evenodd;stroke:none"
         d="m 3930,2774.6 -78.6,-29.4 82.2,-15.6 z" /><path
         id="path124"
         style="fill:none;stroke:#000000;stroke-width:9;stroke-linecap:butt;stroke-linejoin:miter;stroke-miterlimit:10;stroke-dasharray:none;stroke-opacity:1"
         d="m 3930,2774.6 -78.6,-29.4 82.2,-15.6 z" /><g
         id="g126"><g
           clip-path="url(#clipPath132)"
           id="g128"><path
             id="path134"
             style="fill:none;stroke:#000000;stroke-width:4.5;stroke-linecap:butt;stroke-linejoin:miter;stroke-miterlimit:10;stroke-dasharray:none;stroke-opacity:1"
             d="m 3024.03,449.035 c -73.14,-13.152 -147.3,-19.773 -221.61,-19.773 -580.76,0 -1085.25,399.472 -1218.38,964.768" /></g></g><path
         id="path136"
         style="fill:#000000;fill-opacity:1;fill-rule:evenodd;stroke:none"
         d="m 2929.2,413.602 77.4,33 -83.4,11.398 z" /><path
         id="path138"
         style="fill:none;stroke:#000000;stroke-width:9;stroke-linecap:butt;stroke-linejoin:miter;stroke-miterlimit:10;stroke-dasharray:none;stroke-opacity:1"
         d="m 2929.2,413.602 77.4,33 -83.4,11.398 z" /><g
         id="g140"><g
           clip-path="url(#clipPath146)"
           id="g142"><path
             id="path148"
             style="fill:none;stroke:#000000;stroke-width:4.5;stroke-linecap:butt;stroke-linejoin:miter;stroke-miterlimit:10;stroke-dasharray:none;stroke-opacity:1"
             d="m 1718.99,1573.97 c 102.99,23.15 208.24,34.83 313.81,34.83 527.36,0 1011.98,-290.05 1261.17,-754.823" /></g></g><path
         id="path150"
         style="fill:#000000;fill-opacity:1;fill-rule:evenodd;stroke:none"
         d="m 1811.4,1614.2 -75,-37.2 83.4,-6.6 z" /><path
         id="path152"
         style="fill:none;stroke:#000000;stroke-width:9;stroke-linecap:butt;stroke-linejoin:miter;stroke-miterlimit:10;stroke-dasharray:none;stroke-opacity:1"
         d="m 1811.4,1614.2 -75,-37.2 83.4,-6.6 z" /><path
         id="path154"
         style="fill:none;stroke:#000000;stroke-width:9;stroke-linecap:butt;stroke-linejoin:miter;stroke-miterlimit:10;stroke-dasharray:none;stroke-opacity:1"
         d="M 3829.8,471.801 C 3829.8,250.445 3650.36,71 3429,71 c -221.36,0 -400.8,179.445 -400.8,400.801 0,221.355 179.44,400.801 400.8,400.801 221.36,0 400.8,-179.446 400.8,-400.801 z" /><path
         id="path156"
         style="fill:none;stroke:#000000;stroke-width:9;stroke-linecap:butt;stroke-linejoin:miter;stroke-miterlimit:10;stroke-dasharray:none;stroke-opacity:1"
         d="m 1759.8,1731.8 c 0,-221.35 -179.44,-400.8 -400.8,-400.8 -221.36,0 -400.801,179.45 -400.801,400.8 0,221.36 179.441,400.8 400.801,400.8 221.36,0 400.8,-179.44 400.8,-400.8 z" /><path
         id="path158"
         style="fill:none;stroke:#000000;stroke-width:9;stroke-linecap:butt;stroke-linejoin:miter;stroke-miterlimit:10;stroke-dasharray:none;stroke-opacity:1"
         d="m 3851.4,2882 c 0,-221.36 -179.44,-400.8 -400.8,-400.8 -221.35,0 -400.8,179.44 -400.8,400.8 0,221.36 179.45,400.8 400.8,400.8 221.36,0 400.8,-179.44 400.8,-400.8 z" /><g
         transform="scale(10)"
         id="g160"><text
           id="text166"
           style="font-style:italic;font-variant:normal;font-size:30px;font-family:Times;-inkscape-font-specification:Times-Italic;writing-mode:lr-tb;fill:#000000;fill-opacity:1;fill-rule:nonzero;stroke:none"
           transform="matrix(1,0,0,-1,122.4,175.4)"><tspan
             id="tspan162"
             y="0"
             x="0">M</tspan><tspan
             id="tspan164"
             y="-117"
             x="216">I</tspan></text>
<text
           id="text170"
           style="font-style:italic;font-variant:normal;font-size:22.00020027px;font-family:Times;-inkscape-font-specification:Times-Italic;writing-mode:lr-tb;fill:#000000;fill-opacity:1;fill-rule:nonzero;stroke:none"
           transform="matrix(1,0,0,-1,347.4,287.9)"><tspan
             id="tspan168"
             y="0"
             x="0">x</tspan></text>
<text
           id="text174"
           style="font-style:italic;font-variant:normal;font-size:30px;font-family:Times;-inkscape-font-specification:Times-Italic;writing-mode:lr-tb;fill:#000000;fill-opacity:1;fill-rule:nonzero;stroke:none"
           transform="matrix(1,0,0,-1,333.9,53.9)"><tspan
             id="tspan172"
             y="0"
             x="0">I</tspan></text>
<text
           id="text178"
           style="font-style:italic;font-variant:normal;font-size:22.00020027px;font-family:Times;-inkscape-font-specification:Times-Italic;writing-mode:lr-tb;fill:#000000;fill-opacity:1;fill-rule:nonzero;stroke:none"
           transform="matrix(1,0,0,-1,342.9,49.4)"><tspan
             id="tspan176"
             y="0"
             x="0">y</tspan></text>
<text
           id="text190"
           style="font-variant:normal;font-weight:normal;font-size:22.00020027px;font-family:Symbol;-inkscape-font-specification:Symbol;writing-mode:lr-tb;fill:#000000;fill-opacity:1;fill-rule:nonzero;stroke:none"
           transform="matrix(1,0,0,-1,419.4,310.4)"><tspan
             id="tspan180"
             y="0"
             x="0">ε</tspan><tspan
             id="tspan182"
             y="301.5"
             x="4.5">ε</tspan><tspan
             id="tspan184"
             y="144"
             x="-382.5">δ</tspan><tspan
             id="tspan186"
             y="36"
             x="-216">δ</tspan><tspan
             id="tspan188"
             y="274.5"
             x="-220.5">δ</tspan></text>
<text
           id="text198"
           style="font-style:italic;font-variant:normal;font-size:22.00020027px;font-family:Times;-inkscape-font-specification:Times-Italic;writing-mode:lr-tb;fill:#000000;fill-opacity:1;fill-rule:nonzero;stroke:none"
           transform="matrix(1,0,0,-1,0.9,166.4)"><tspan
             id="tspan192"
             y="0"
             x="0 11.0001 25.850235">1−2</tspan><tspan
             id="tspan194"
             y="-22.5"
             x="279 290.00009">1−</tspan><tspan
             id="tspan196"
             y="22.5"
             x="279 290.00009">1−</tspan></text>
<text
           id="text204"
           style="font-variant:normal;font-weight:normal;font-size:22.00020027px;font-family:Symbol;-inkscape-font-specification:Symbol;writing-mode:lr-tb;fill:#000000;fill-opacity:1;fill-rule:nonzero;stroke:none"
           transform="matrix(1,0,0,-1,306.9,188.9)"><tspan
             id="tspan200"
             y="0"
             x="0">ε</tspan><tspan
             id="tspan202"
             y="45"
             x="0">ε</tspan></text>
</g></g></g></svg>